<svg style="" width="20.015625" height="20.015625" version="1.1" xmlns="http://www.w3.org/2000/svg">
<path d="M12.000000 18.000000 C12.000000 18.562503 11.804689 19.039061 11.414062 19.429688 C11.023436 19.820314 10.554690 20.015625 10.007812 20.015625 C9.460935 20.015625 8.992189 19.820314 8.601562 19.429688 C8.210936 19.039061 8.015625 18.562503 8.015625 18.000000 C8.015625 17.453122 8.210936 16.984377 8.601562 16.593750 C8.992189 16.203123 9.460935 16.007812 10.007812 16.007812 C10.554690 16.007812 11.023436 16.203123 11.414062 16.593750 C11.804689 16.984377 12.000000 17.453122 12.000000 18.000000 Z M12.000000 2.015625 C12.000000 2.562503 11.804689 3.031248 11.414062 3.421875 C11.023436 3.812502 10.554690 4.007812 10.007812 4.007812 C9.460935 4.007812 8.992189 3.812502 8.601562 3.421875 C8.210936 3.031248 8.015625 2.562503 8.015625 2.015625 C8.015625 1.453122 8.210936 0.976564 8.601562 0.585938 C8.992189 0.195311 9.460935 -0.000000 10.007812 -0.000000 C10.554690 -0.000000 11.023436 0.195311 11.414062 0.585938 C11.804689 0.976564 12.000000 1.453122 12.000000 2.015625 Z M6.351562 15.656250 C6.351562 16.218753 6.156252 16.695311 5.765625 17.085938 C5.374998 17.476564 4.906253 17.671875 4.359375 17.671875 C3.796872 17.671875 3.320314 17.476564 2.929688 17.085938 C2.539061 16.695311 2.343750 16.218753 2.343750 15.656250 C2.343750 15.109372 2.539061 14.640627 2.929688 14.250000 C3.320314 13.859373 3.796872 13.664062 4.359375 13.664062 C4.906253 13.664062 5.374998 13.859373 5.765625 14.250000 C6.156252 14.640627 6.351562 15.109372 6.351562 15.656250 Z M17.671875 4.359375 C17.671875 4.906253 17.476564 5.374998 17.085938 5.765625 C16.695311 6.156252 16.218753 6.351562 15.656250 6.351562 C15.109372 6.351562 14.640627 6.156252 14.250000 5.765625 C13.859373 5.374998 13.664062 4.906253 13.664062 4.359375 C13.664062 3.796872 13.859373 3.320314 14.250000 2.929688 C14.640627 2.539061 15.109372 2.343750 15.656250 2.343750 C16.218753 2.343750 16.695311 2.539061 17.085938 2.929688 C17.476564 3.320314 17.671875 3.796872 17.671875 4.359375 Z M4.007812 10.007812 C4.007812 10.554690 3.812502 11.023436 3.421875 11.414062 C3.031248 11.804689 2.562503 12.000000 2.015625 12.000000 C1.453122 12.000000 0.976564 11.804689 0.585938 11.414062 C0.195311 11.023436 0.000000 10.554690 0.000000 10.007812 C0.000000 9.460935 0.195311 8.992189 0.585938 8.601562 C0.976564 8.210936 1.453122 8.015625 2.015625 8.015625 C2.562503 8.015625 3.031248 8.210936 3.421875 8.601562 C3.812502 8.992189 4.007812 9.460935 4.007812 10.007812 Z M20.015625 10.007812 C20.015625 10.554690 19.820314 11.023436 19.429688 11.414062 C19.039061 11.804689 18.562503 12.000000 18.000000 12.000000 C17.453122 12.000000 16.984377 11.804689 16.593750 11.414062 C16.203123 11.023436 16.007812 10.554690 16.007812 10.007812 C16.007812 9.460935 16.203123 8.992189 16.593750 8.601562 C16.984377 8.210936 17.453122 8.015625 18.000000 8.015625 C18.562503 8.015625 19.039061 8.210936 19.429688 8.601562 C19.820314 8.992189 20.015625 9.460935 20.015625 10.007812 Z M6.351562 4.359375 C6.351562 4.906253 6.156252 5.374998 5.765625 5.765625 C5.374998 6.156252 4.906253 6.351562 4.359375 6.351562 C3.796872 6.351562 3.320314 6.156252 2.929688 5.765625 C2.539061 5.374998 2.343750 4.906253 2.343750 4.359375 C2.343750 3.796872 2.539061 3.320314 2.929688 2.929688 C3.320314 2.539061 3.796872 2.343750 4.359375 2.343750 C4.906253 2.343750 5.374998 2.539061 5.765625 2.929688 C6.156252 3.320314 6.351562 3.796872 6.351562 4.359375 Z M17.671875 15.656250 C17.671875 16.218753 17.476564 16.695311 17.085938 17.085938 C16.695311 17.476564 16.218753 17.671875 15.656250 17.671875 C15.109372 17.671875 14.640627 17.476564 14.250000 17.085938 C13.859373 16.695311 13.664062 16.218753 13.664062 15.656250 C13.664062 15.109372 13.859373 14.640627 14.250000 14.250000 C14.640627 13.859373 15.109372 13.664062 15.656250 13.664062 C16.218753 13.664062 16.695311 13.859373 17.085938 14.250000 C17.476564 14.640627 17.671875 15.109372 17.671875 15.656250 Z M22.007812 20.507812" style="fill:black"/>
</svg>